<svg width="25" height="27" viewBox="0 0 25 27" fill="none" xmlns="http://www.w3.org/2000/svg">
<path d="M1 9.33333H23.2222M1 9.33333V21.5558C1 23.1115 1 23.889 1.30276 24.4832C1.56907 25.0058 1.99371 25.4312 2.51638 25.6975C3.11 26 3.88749 26 5.44015 26H18.7821C20.3347 26 21.1111 26 21.7047 25.6975C22.2274 25.4312 22.6534 25.0058 22.9198 24.4832C23.2222 23.8896 23.2222 23.1132 23.2222 21.5605V9.33333M1 9.33333V8.22249C1 6.66679 1 5.88836 1.30276 5.29416C1.56907 4.77149 1.99371 4.34685 2.51638 4.08054C3.11058 3.77778 3.88901 3.77778 5.44472 3.77778H6.55556M23.2222 9.33333V8.21793C23.2222 6.66527 23.2222 5.88778 22.9198 5.29416C22.6534 4.77149 22.2274 4.34685 21.7047 4.08054C21.1105 3.77778 20.3338 3.77778 18.778 3.77778H17.6667M6.55556 3.77778H17.6667M6.55556 3.77778V1M17.6667 3.77778V1M16.2778 14.8889L10.7222 20.4444L7.94444 17.6667" stroke="#4C8732" stroke-width="2" stroke-linecap="round" stroke-linejoin="round"/>
</svg>
