<svg width="25" height="27" viewBox="0 0 25 27" fill="none" xmlns="http://www.w3.org/2000/svg">
<path d="M1.7356 9.38672H23.0689M1.7356 9.38672V21.1203C1.7356 22.6138 1.7356 23.3601 2.02625 23.9306C2.28191 24.4323 2.68956 24.8407 3.19132 25.0964C3.7612 25.3867 4.50759 25.3867 5.99814 25.3867H18.807C20.2976 25.3867 21.0429 25.3867 21.6128 25.0964C22.1145 24.8407 22.5229 24.4323 22.7786 23.9306C23.0689 23.3607 23.0689 22.6154 23.0689 21.1248V9.38672M1.7356 9.38672V8.32031C1.7356 6.82684 1.7356 6.07955 2.02625 5.50911C2.28191 5.00735 2.68956 4.5997 3.19132 4.34403C3.76176 4.05339 4.50905 4.05339 6.00252 4.05339H7.06893M23.0689 9.38672V8.31593C23.0689 6.82538 23.0689 6.07899 22.7786 5.50911C22.5229 5.00735 22.1145 4.5997 21.6128 4.34403C21.0423 4.05339 20.296 4.05339 18.8025 4.05339H17.7356M7.06893 4.05339H17.7356M7.06893 4.05339V1.38672M17.7356 4.05339V1.38672M15.0689 20.0534L12.4023 17.3867M12.4023 17.3867L9.7356 14.7201M12.4023 17.3867L15.0689 14.7201M12.4023 17.3867L9.7356 20.0534" stroke="#E01300" stroke-width="2" stroke-linecap="round" stroke-linejoin="round"/>
</svg>
