<svg width="125" height="62" viewBox="0 0 125 62" fill="none" xmlns="http://www.w3.org/2000/svg">
<path d="M5.685 15.68C4.665 15.68 3.78 15.455 3.03 15.005C2.29 14.545 1.72 13.91 1.32 13.1C0.92 12.28 0.72 11.33 0.72 10.25C0.72 9.17 0.92 8.225 1.32 7.415C1.72 6.595 2.29 5.96 3.03 5.51C3.78 5.05 4.665 4.82 5.685 4.82C6.885 4.82 7.86 5.105 8.61 5.675C9.36 6.245 9.84 7.05 10.05 8.09H8.655C8.495 7.44 8.17 6.92 7.68 6.53C7.19 6.13 6.525 5.93 5.685 5.93C4.935 5.93 4.285 6.105 3.735 6.455C3.185 6.795 2.76 7.29 2.46 7.94C2.16 8.58 2.01 9.35 2.01 10.25C2.01 11.15 2.16 11.925 2.46 12.575C2.76 13.215 3.185 13.71 3.735 14.06C4.285 14.4 4.935 14.57 5.685 14.57C6.525 14.57 7.19 14.38 7.68 14C8.17 13.61 8.495 13.095 8.655 12.455H10.05C9.84 13.465 9.36 14.255 8.61 14.825C7.86 15.395 6.885 15.68 5.685 15.68ZM14.262 15.68C13.652 15.68 13.142 15.575 12.732 15.365C12.322 15.145 12.017 14.86 11.817 14.51C11.617 14.15 11.517 13.76 11.517 13.34C11.517 12.83 11.647 12.4 11.907 12.05C12.177 11.69 12.552 11.42 13.032 11.24C13.522 11.05 14.097 10.955 14.757 10.955H16.752C16.752 10.485 16.677 10.095 16.527 9.785C16.387 9.465 16.177 9.225 15.897 9.065C15.627 8.905 15.287 8.825 14.877 8.825C14.397 8.825 13.982 8.945 13.632 9.185C13.282 9.425 13.067 9.78 12.987 10.25H11.697C11.757 9.71 11.937 9.26 12.237 8.9C12.547 8.53 12.937 8.25 13.407 8.06C13.877 7.86 14.367 7.76 14.877 7.76C15.577 7.76 16.157 7.89 16.617 8.15C17.087 8.4 17.437 8.755 17.667 9.215C17.897 9.665 18.012 10.2 18.012 10.82V15.5H16.887L16.812 14.165C16.712 14.375 16.582 14.575 16.422 14.765C16.272 14.945 16.092 15.105 15.882 15.245C15.672 15.375 15.432 15.48 15.162 15.56C14.902 15.64 14.602 15.68 14.262 15.68ZM14.457 14.615C14.807 14.615 15.122 14.545 15.402 14.405C15.692 14.255 15.937 14.055 16.137 13.805C16.337 13.545 16.487 13.26 16.587 12.95C16.697 12.64 16.752 12.315 16.752 11.975V11.93H14.862C14.372 11.93 13.977 11.99 13.677 12.11C13.377 12.22 13.162 12.38 13.032 12.59C12.902 12.79 12.837 13.02 12.837 13.28C12.837 13.55 12.897 13.785 13.017 13.985C13.147 14.185 13.332 14.34 13.572 14.45C13.822 14.56 14.117 14.615 14.457 14.615ZM19.9611 15.5V7.94H21.1011L21.1911 9.38C21.3611 9.04 21.5761 8.75 21.8361 8.51C22.1061 8.27 22.4261 8.085 22.7961 7.955C23.1761 7.825 23.6061 7.76 24.0861 7.76V9.08H23.6211C23.3011 9.08 22.9961 9.125 22.7061 9.215C22.4161 9.295 22.1561 9.43 21.9261 9.62C21.7061 9.81 21.5311 10.07 21.4011 10.4C21.2811 10.72 21.2211 11.12 21.2211 11.6V15.5H19.9611ZM28.3221 18.98C27.6421 18.98 27.0371 18.89 26.5071 18.71C25.9871 18.54 25.5821 18.275 25.2921 17.915C25.0021 17.555 24.8571 17.11 24.8571 16.58C24.8571 16.35 24.9021 16.105 24.9921 15.845C25.0921 15.585 25.2571 15.33 25.4871 15.08C25.7271 14.83 26.0621 14.605 26.4921 14.405L27.3621 14.915C26.8321 15.135 26.4871 15.385 26.3271 15.665C26.1671 15.955 26.0871 16.22 26.0871 16.46C26.0871 16.79 26.1821 17.065 26.3721 17.285C26.5621 17.505 26.8271 17.67 27.1671 17.78C27.5071 17.89 27.8921 17.945 28.3221 17.945C28.7521 17.945 29.1221 17.885 29.4321 17.765C29.7421 17.645 29.9821 17.475 30.1521 17.255C30.3221 17.035 30.4071 16.775 30.4071 16.475C30.4071 16.125 30.2771 15.83 30.0171 15.59C29.7571 15.36 29.2621 15.225 28.5321 15.185C27.9421 15.145 27.4471 15.09 27.0471 15.02C26.6471 14.95 26.3171 14.87 26.0571 14.78C25.7971 14.68 25.5771 14.57 25.3971 14.45C25.2271 14.33 25.0721 14.205 24.9321 14.075V13.73L26.3871 12.29L27.4821 12.68L25.9821 14.03L26.1771 13.505C26.2871 13.585 26.3921 13.66 26.4921 13.73C26.5921 13.8 26.7271 13.86 26.8971 13.91C27.0671 13.96 27.3021 14.005 27.6021 14.045C27.9121 14.085 28.3171 14.125 28.8171 14.165C29.5071 14.215 30.0571 14.335 30.4671 14.525C30.8871 14.715 31.1871 14.97 31.3671 15.29C31.5571 15.61 31.6521 15.99 31.6521 16.43C31.6521 16.86 31.5321 17.265 31.2921 17.645C31.0621 18.035 30.7021 18.355 30.2121 18.605C29.7221 18.855 29.0921 18.98 28.3221 18.98ZM28.3071 13.13C27.6771 13.13 27.1371 13.01 26.6871 12.77C26.2471 12.53 25.9121 12.21 25.6821 11.81C25.4521 11.4 25.3371 10.945 25.3371 10.445C25.3371 9.945 25.4521 9.495 25.6821 9.095C25.9221 8.695 26.2621 8.375 26.7021 8.135C27.1421 7.885 27.6771 7.76 28.3071 7.76C28.9371 7.76 29.4721 7.885 29.9121 8.135C30.3521 8.375 30.6871 8.695 30.9171 9.095C31.1471 9.495 31.2621 9.945 31.2621 10.445C31.2621 10.945 31.1471 11.4 30.9171 11.81C30.6871 12.21 30.3521 12.53 29.9121 12.77C29.4721 13.01 28.9371 13.13 28.3071 13.13ZM28.3071 12.095C28.8471 12.095 29.2721 11.955 29.5821 11.675C29.8921 11.395 30.0471 10.985 30.0471 10.445C30.0471 9.915 29.8921 9.51 29.5821 9.23C29.2721 8.95 28.8471 8.81 28.3071 8.81C27.7771 8.81 27.3471 8.95 27.0171 9.23C26.6971 9.51 26.5371 9.915 26.5371 10.445C26.5371 10.985 26.6971 11.395 27.0171 11.675C27.3371 11.955 27.7671 12.095 28.3071 12.095ZM29.5371 9.005L29.1621 7.94H32.2521V8.885L29.5371 9.005ZM36.1614 15.68C35.5514 15.68 35.0414 15.575 34.6314 15.365C34.2214 15.145 33.9164 14.86 33.7164 14.51C33.5164 14.15 33.4164 13.76 33.4164 13.34C33.4164 12.83 33.5464 12.4 33.8064 12.05C34.0764 11.69 34.4514 11.42 34.9314 11.24C35.4214 11.05 35.9964 10.955 36.6564 10.955H38.6514C38.6514 10.485 38.5764 10.095 38.4264 9.785C38.2864 9.465 38.0764 9.225 37.7964 9.065C37.5264 8.905 37.1864 8.825 36.7764 8.825C36.2964 8.825 35.8814 8.945 35.5314 9.185C35.1814 9.425 34.9664 9.78 34.8864 10.25H33.5964C33.6564 9.71 33.8364 9.26 34.1364 8.9C34.4464 8.53 34.8364 8.25 35.3064 8.06C35.7764 7.86 36.2664 7.76 36.7764 7.76C37.4764 7.76 38.0564 7.89 38.5164 8.15C38.9864 8.4 39.3364 8.755 39.5664 9.215C39.7964 9.665 39.9114 10.2 39.9114 10.82V15.5H38.7864L38.7114 14.165C38.6114 14.375 38.4814 14.575 38.3214 14.765C38.1714 14.945 37.9914 15.105 37.7814 15.245C37.5714 15.375 37.3314 15.48 37.0614 15.56C36.8014 15.64 36.5014 15.68 36.1614 15.68ZM36.3564 14.615C36.7064 14.615 37.0214 14.545 37.3014 14.405C37.5914 14.255 37.8364 14.055 38.0364 13.805C38.2364 13.545 38.3864 13.26 38.4864 12.95C38.5964 12.64 38.6514 12.315 38.6514 11.975V11.93H36.7614C36.2714 11.93 35.8764 11.99 35.5764 12.11C35.2764 12.22 35.0614 12.38 34.9314 12.59C34.8014 12.79 34.7364 13.02 34.7364 13.28C34.7364 13.55 34.7964 13.785 34.9164 13.985C35.0464 14.185 35.2314 14.34 35.4714 14.45C35.7214 14.56 36.0164 14.615 36.3564 14.615ZM48.5899 15.68C48.0099 15.68 47.4999 15.565 47.0599 15.335C46.6299 15.105 46.2949 14.75 46.0549 14.27C45.8249 13.79 45.7099 13.19 45.7099 12.47V7.94H46.9699V12.335C46.9699 13.085 47.1349 13.65 47.4649 14.03C47.7949 14.41 48.2599 14.6 48.8599 14.6C49.2799 14.6 49.6599 14.5 49.9999 14.3C50.3399 14.09 50.6049 13.795 50.7949 13.415C50.9949 13.025 51.0949 12.55 51.0949 11.99V7.94H52.3549V15.5H51.2149L51.1399 14.18C50.9099 14.65 50.5699 15.02 50.1199 15.29C49.6699 15.55 49.1599 15.68 48.5899 15.68ZM54.4436 15.5V7.94H55.5836L55.6436 9.26C55.8836 8.79 56.2236 8.425 56.6636 8.165C57.1136 7.895 57.6236 7.76 58.1936 7.76C58.7836 7.76 59.2936 7.88 59.7236 8.12C60.1536 8.35 60.4886 8.705 60.7286 9.185C60.9686 9.655 61.0886 10.255 61.0886 10.985V15.5H59.8286V11.12C59.8286 10.36 59.6586 9.79 59.3186 9.41C58.9886 9.03 58.5186 8.84 57.9086 8.84C57.4886 8.84 57.1136 8.945 56.7836 9.155C56.4536 9.355 56.1886 9.65 55.9886 10.04C55.7986 10.42 55.7036 10.895 55.7036 11.465V15.5H54.4436ZM65.5168 15.68C64.9068 15.68 64.3968 15.575 63.9868 15.365C63.5768 15.145 63.2718 14.86 63.0718 14.51C62.8718 14.15 62.7718 13.76 62.7718 13.34C62.7718 12.83 62.9018 12.4 63.1618 12.05C63.4318 11.69 63.8068 11.42 64.2868 11.24C64.7768 11.05 65.3518 10.955 66.0118 10.955H68.0068C68.0068 10.485 67.9318 10.095 67.7818 9.785C67.6418 9.465 67.4318 9.225 67.1518 9.065C66.8818 8.905 66.5418 8.825 66.1318 8.825C65.6518 8.825 65.2368 8.945 64.8868 9.185C64.5368 9.425 64.3218 9.78 64.2418 10.25H62.9518C63.0118 9.71 63.1918 9.26 63.4918 8.9C63.8018 8.53 64.1918 8.25 64.6618 8.06C65.1318 7.86 65.6218 7.76 66.1318 7.76C66.8318 7.76 67.4118 7.89 67.8718 8.15C68.3418 8.4 68.6918 8.755 68.9218 9.215C69.1518 9.665 69.2668 10.2 69.2668 10.82V15.5H68.1418L68.0668 14.165C67.9668 14.375 67.8368 14.575 67.6768 14.765C67.5268 14.945 67.3468 15.105 67.1368 15.245C66.9268 15.375 66.6868 15.48 66.4168 15.56C66.1568 15.64 65.8568 15.68 65.5168 15.68ZM65.7118 14.615C66.0618 14.615 66.3768 14.545 66.6568 14.405C66.9468 14.255 67.1918 14.055 67.3918 13.805C67.5918 13.545 67.7418 13.26 67.8418 12.95C67.9518 12.64 68.0068 12.315 68.0068 11.975V11.93H66.1168C65.6268 11.93 65.2318 11.99 64.9318 12.11C64.6318 12.22 64.4168 12.38 64.2868 12.59C64.1568 12.79 64.0918 13.02 64.0918 13.28C64.0918 13.55 64.1518 13.785 64.2718 13.985C64.4018 14.185 64.5868 14.34 64.8268 14.45C65.0768 14.56 65.3718 14.615 65.7118 14.615ZM75.3204 15.5V7.94H76.5804V15.5H75.3204ZM75.9504 6.335C75.7004 6.335 75.4904 6.255 75.3204 6.095C75.1604 5.925 75.0804 5.715 75.0804 5.465C75.0804 5.215 75.1604 5.015 75.3204 4.865C75.4904 4.705 75.7004 4.625 75.9504 4.625C76.1904 4.625 76.3954 4.705 76.5654 4.865C76.7354 5.015 76.8204 5.215 76.8204 5.465C76.8204 5.715 76.7354 5.925 76.5654 6.095C76.3954 6.255 76.1904 6.335 75.9504 6.335ZM78.8039 15.5V7.94H79.9439L80.0189 9.02C80.2589 8.63 80.5789 8.325 80.9789 8.105C81.3889 7.875 81.8339 7.76 82.3139 7.76C82.7039 7.76 83.0539 7.815 83.3639 7.925C83.6839 8.025 83.9639 8.185 84.2039 8.405C84.4439 8.615 84.6389 8.885 84.7889 9.215C85.0489 8.755 85.4039 8.4 85.8539 8.15C86.3139 7.89 86.8039 7.76 87.3239 7.76C87.9039 7.76 88.4089 7.88 88.8389 8.12C89.2789 8.35 89.6139 8.705 89.8439 9.185C90.0839 9.655 90.2039 10.255 90.2039 10.985V15.5H88.9589V11.12C88.9589 10.36 88.8039 9.79 88.4939 9.41C88.1839 9.03 87.7489 8.84 87.1889 8.84C86.7989 8.84 86.4489 8.945 86.1389 9.155C85.8289 9.355 85.5839 9.65 85.4039 10.04C85.2239 10.43 85.1339 10.91 85.1339 11.48V15.5H83.8739V11.12C83.8739 10.36 83.7189 9.79 83.4089 9.41C83.0989 9.03 82.6589 8.84 82.0889 8.84C81.7089 8.84 81.3639 8.945 81.0539 9.155C80.7539 9.355 80.5139 9.65 80.3339 10.04C80.1539 10.43 80.0639 10.91 80.0639 11.48V15.5H78.8039ZM94.6233 15.68C94.0133 15.68 93.5033 15.575 93.0933 15.365C92.6833 15.145 92.3783 14.86 92.1783 14.51C91.9783 14.15 91.8783 13.76 91.8783 13.34C91.8783 12.83 92.0083 12.4 92.2683 12.05C92.5383 11.69 92.9133 11.42 93.3933 11.24C93.8833 11.05 94.4583 10.955 95.1183 10.955H97.1133C97.1133 10.485 97.0383 10.095 96.8883 9.785C96.7483 9.465 96.5383 9.225 96.2583 9.065C95.9883 8.905 95.6483 8.825 95.2383 8.825C94.7583 8.825 94.3433 8.945 93.9933 9.185C93.6433 9.425 93.4283 9.78 93.3483 10.25H92.0583C92.1183 9.71 92.2983 9.26 92.5983 8.9C92.9083 8.53 93.2983 8.25 93.7683 8.06C94.2383 7.86 94.7283 7.76 95.2383 7.76C95.9383 7.76 96.5183 7.89 96.9783 8.15C97.4483 8.4 97.7983 8.755 98.0283 9.215C98.2583 9.665 98.3733 10.2 98.3733 10.82V15.5H97.2483L97.1733 14.165C97.0733 14.375 96.9433 14.575 96.7833 14.765C96.6333 14.945 96.4533 15.105 96.2433 15.245C96.0333 15.375 95.7933 15.48 95.5233 15.56C95.2633 15.64 94.9633 15.68 94.6233 15.68ZM94.8183 14.615C95.1683 14.615 95.4833 14.545 95.7633 14.405C96.0533 14.255 96.2983 14.055 96.4983 13.805C96.6983 13.545 96.8483 13.26 96.9483 12.95C97.0583 12.64 97.1133 12.315 97.1133 11.975V11.93H95.2233C94.7333 11.93 94.3383 11.99 94.0383 12.11C93.7383 12.22 93.5233 12.38 93.3933 12.59C93.2633 12.79 93.1983 13.02 93.1983 13.28C93.1983 13.55 93.2583 13.785 93.3783 13.985C93.5083 14.185 93.6933 14.34 93.9333 14.45C94.1833 14.56 94.4783 14.615 94.8183 14.615ZM103.307 18.98C102.627 18.98 102.022 18.89 101.492 18.71C100.972 18.54 100.567 18.275 100.277 17.915C99.9875 17.555 99.8425 17.11 99.8425 16.58C99.8425 16.35 99.8875 16.105 99.9775 15.845C100.077 15.585 100.242 15.33 100.472 15.08C100.712 14.83 101.047 14.605 101.477 14.405L102.347 14.915C101.817 15.135 101.472 15.385 101.312 15.665C101.152 15.955 101.072 16.22 101.072 16.46C101.072 16.79 101.167 17.065 101.357 17.285C101.547 17.505 101.812 17.67 102.152 17.78C102.492 17.89 102.877 17.945 103.307 17.945C103.737 17.945 104.107 17.885 104.417 17.765C104.727 17.645 104.967 17.475 105.137 17.255C105.307 17.035 105.392 16.775 105.392 16.475C105.392 16.125 105.262 15.83 105.002 15.59C104.742 15.36 104.247 15.225 103.517 15.185C102.927 15.145 102.432 15.09 102.032 15.02C101.632 14.95 101.302 14.87 101.042 14.78C100.782 14.68 100.562 14.57 100.382 14.45C100.212 14.33 100.057 14.205 99.9175 14.075V13.73L101.372 12.29L102.467 12.68L100.967 14.03L101.162 13.505C101.272 13.585 101.377 13.66 101.477 13.73C101.577 13.8 101.712 13.86 101.882 13.91C102.052 13.96 102.287 14.005 102.587 14.045C102.897 14.085 103.302 14.125 103.802 14.165C104.492 14.215 105.042 14.335 105.452 14.525C105.872 14.715 106.172 14.97 106.352 15.29C106.542 15.61 106.637 15.99 106.637 16.43C106.637 16.86 106.517 17.265 106.277 17.645C106.047 18.035 105.687 18.355 105.197 18.605C104.707 18.855 104.077 18.98 103.307 18.98ZM103.292 13.13C102.662 13.13 102.122 13.01 101.672 12.77C101.232 12.53 100.897 12.21 100.667 11.81C100.437 11.4 100.322 10.945 100.322 10.445C100.322 9.945 100.437 9.495 100.667 9.095C100.907 8.695 101.247 8.375 101.687 8.135C102.127 7.885 102.662 7.76 103.292 7.76C103.922 7.76 104.457 7.885 104.897 8.135C105.337 8.375 105.672 8.695 105.902 9.095C106.132 9.495 106.247 9.945 106.247 10.445C106.247 10.945 106.132 11.4 105.902 11.81C105.672 12.21 105.337 12.53 104.897 12.77C104.457 13.01 103.922 13.13 103.292 13.13ZM103.292 12.095C103.832 12.095 104.257 11.955 104.567 11.675C104.877 11.395 105.032 10.985 105.032 10.445C105.032 9.915 104.877 9.51 104.567 9.23C104.257 8.95 103.832 8.81 103.292 8.81C102.762 8.81 102.332 8.95 102.002 9.23C101.682 9.51 101.522 9.915 101.522 10.445C101.522 10.985 101.682 11.395 102.002 11.675C102.322 11.955 102.752 12.095 103.292 12.095ZM104.522 9.005L104.147 7.94H107.237V8.885L104.522 9.005ZM111.709 15.68C110.999 15.68 110.369 15.515 109.819 15.185C109.279 14.855 108.854 14.395 108.544 13.805C108.234 13.205 108.079 12.51 108.079 11.72C108.079 10.92 108.229 10.225 108.529 9.635C108.839 9.045 109.269 8.585 109.819 8.255C110.379 7.925 111.019 7.76 111.739 7.76C112.479 7.76 113.104 7.925 113.614 8.255C114.134 8.585 114.529 9.02 114.799 9.56C115.079 10.09 115.219 10.675 115.219 11.315C115.219 11.415 115.219 11.52 115.219 11.63C115.219 11.74 115.214 11.865 115.204 12.005H109.024V11.03H113.989C113.959 10.34 113.729 9.8 113.299 9.41C112.879 9.02 112.349 8.825 111.709 8.825C111.279 8.825 110.879 8.925 110.509 9.125C110.149 9.315 109.859 9.6 109.639 9.98C109.419 10.35 109.309 10.815 109.309 11.375V11.795C109.309 12.415 109.419 12.935 109.639 13.355C109.869 13.775 110.164 14.09 110.524 14.3C110.894 14.51 111.289 14.615 111.709 14.615C112.239 14.615 112.674 14.5 113.014 14.27C113.364 14.03 113.614 13.71 113.764 13.31H115.009C114.889 13.76 114.679 14.165 114.379 14.525C114.079 14.885 113.704 15.17 113.254 15.38C112.814 15.58 112.299 15.68 111.709 15.68ZM116.919 15.5V7.94H118.059L118.119 9.26C118.359 8.79 118.699 8.425 119.139 8.165C119.589 7.895 120.099 7.76 120.669 7.76C121.259 7.76 121.769 7.88 122.199 8.12C122.629 8.35 122.964 8.705 123.204 9.185C123.444 9.655 123.564 10.255 123.564 10.985V15.5H122.304V11.12C122.304 10.36 122.134 9.79 121.794 9.41C121.464 9.03 120.994 8.84 120.384 8.84C119.964 8.84 119.589 8.945 119.259 9.155C118.929 9.355 118.664 9.65 118.464 10.04C118.274 10.42 118.179 10.895 118.179 11.465V15.5H116.919Z" fill="#703FD0"/>
<path d="M68.75 42.75L62.5 36.5M62.5 36.5L56.25 42.75M62.5 36.5L62.5 52.75" stroke="#703FD0" stroke-width="2" stroke-linecap="round" stroke-linejoin="round"/>
<path d="M55 56.5H70" stroke="#703FD0" stroke-width="2" stroke-linecap="round" stroke-linejoin="round"/>
</svg>
