<svg width="34" height="27" viewBox="0 0 34 27" fill="none" xmlns="http://www.w3.org/2000/svg">
<path d="M2.36913 9.80345L2.014 11.0019H2.014L2.36913 9.80345ZM2.36913 16.9954L2.72427 18.1939L2.36913 16.9954ZM31.7348 9.80345L31.3796 8.60496L31.7348 9.80345ZM6.05194 0.149414C3.15245 0.149414 0.801943 2.49992 0.801943 5.39941H3.30194C3.30194 3.88063 4.53316 2.64941 6.05194 2.64941V0.149414ZM28.0519 0.149414H6.05194V2.64941H28.0519V0.149414ZM33.3019 5.39941C33.3019 2.49992 30.9514 0.149414 28.0519 0.149414V2.64941C29.5707 2.64941 30.8019 3.88063 30.8019 5.39941H33.3019ZM33.3019 9.39746V5.39941H30.8019V9.39746H33.3019ZM30.3019 13.3994C30.3019 12.2677 31.0549 11.3086 32.0899 11.0019L31.3796 8.60496C29.3122 9.21757 27.8019 11.1305 27.8019 13.3994H30.3019ZM32.0899 15.7969C31.0549 15.4902 30.3019 14.5311 30.3019 13.3994H27.8019C27.8019 15.6683 29.3122 17.5813 31.3796 18.1939L32.0899 15.7969ZM33.3019 21.3994V17.4014H30.8019V21.3994H33.3019ZM28.0519 26.6494C30.9514 26.6494 33.3019 24.2989 33.3019 21.3994H30.8019C30.8019 22.9182 29.5707 24.1494 28.0519 24.1494V26.6494ZM6.05194 26.6494H28.0519V24.1494H6.05194V26.6494ZM0.801943 21.3994C0.801943 24.2989 3.15245 26.6494 6.05194 26.6494V24.1494C4.53316 24.1494 3.30194 22.9182 3.30194 21.3994H0.801943ZM0.801943 17.4014V21.3994H3.30194V17.4014H0.801943ZM2.72427 18.1939C4.79166 17.5813 6.30194 15.6683 6.30194 13.3994H3.80194C3.80194 14.5311 3.04899 15.4902 2.014 15.7969L2.72427 18.1939ZM6.30194 13.3994C6.30194 11.1305 4.79166 9.21757 2.72427 8.60496L2.014 11.0019C3.04899 11.3086 3.80194 12.2677 3.80194 13.3994H6.30194ZM0.801943 5.39941V9.39747H3.30194V5.39941H0.801943ZM2.72427 8.60496C3.00941 8.68945 3.30194 8.97088 3.30194 9.39747H0.801943C0.801943 10.2045 1.36406 10.8093 2.014 11.0019L2.72427 8.60496ZM3.30194 17.4014C3.30194 17.8279 3.00941 18.1094 2.72427 18.1939L2.014 15.7969C1.36406 15.9895 0.801943 16.5943 0.801943 17.4014H3.30194ZM31.3796 18.1939C31.0945 18.1094 30.8019 17.8279 30.8019 17.4014H33.3019C33.3019 16.5943 32.7398 15.9895 32.0899 15.7969L31.3796 18.1939ZM30.8019 9.39746C30.8019 8.97088 31.0945 8.68945 31.3796 8.60496L32.0899 11.0019C32.7398 10.8093 33.3019 10.2045 33.3019 9.39746H30.8019Z" fill="#E19110"/>
<path d="M21.5519 5.89941L21.5519 1.39941" stroke="#E19110" stroke-width="2.5" stroke-linecap="round" stroke-linejoin="round"/>
<path d="M21.5519 15.6494L21.5519 11.1494" stroke="#E19110" stroke-width="2.5" stroke-linecap="round" stroke-linejoin="round"/>
<path d="M21.5519 25.3994L21.5519 20.8994" stroke="#E19110" stroke-width="2.5" stroke-linecap="round" stroke-linejoin="round"/>
</svg>
