<svg width="34" height="27" viewBox="0 0 34 27" fill="none" xmlns="http://www.w3.org/2000/svg">
<path d="M2.08697 9.80345L1.73183 11.0019H1.73183L2.08697 9.80345ZM2.08697 16.9954L2.44211 18.1939L2.08697 16.9954ZM31.4526 16.9954L31.8077 15.7969L31.4526 16.9954ZM31.4526 9.80345L31.0974 8.60496L31.4526 9.80345ZM5.76978 0.149414C2.87028 0.149414 0.519775 2.49992 0.519775 5.39941H3.01978C3.01978 3.88063 4.25099 2.64941 5.76978 2.64941V0.149414ZM27.7698 0.149414H5.76978V2.64941H27.7698V0.149414ZM33.0198 5.39941C33.0198 2.49992 30.6693 0.149414 27.7698 0.149414V2.64941C29.2886 2.64941 30.5198 3.88063 30.5198 5.39941H33.0198ZM33.0198 9.39747V5.39941H30.5198V9.39747H33.0198ZM30.0198 13.3994C30.0198 12.2677 30.7727 11.3086 31.8077 11.0019L31.0974 8.60496C29.0301 9.21757 27.5198 11.1305 27.5198 13.3994H30.0198ZM31.8077 15.7969C30.7727 15.4902 30.0198 14.5311 30.0198 13.3994H27.5198C27.5198 15.6683 29.0301 17.5813 31.0974 18.1939L31.8077 15.7969ZM33.0198 21.3994V17.4014H30.5198V21.3994H33.0198ZM27.7698 26.6494C30.6693 26.6494 33.0198 24.2989 33.0198 21.3994H30.5198C30.5198 22.9182 29.2886 24.1494 27.7698 24.1494V26.6494ZM5.76978 26.6494H27.7698V24.1494H5.76978V26.6494ZM0.519775 21.3994C0.519775 24.2989 2.87028 26.6494 5.76978 26.6494V24.1494C4.25099 24.1494 3.01978 22.9182 3.01978 21.3994H0.519775ZM0.519775 17.4014V21.3994H3.01978V17.4014H0.519775ZM2.44211 18.1939C4.50949 17.5813 6.01978 15.6683 6.01978 13.3994H3.51978C3.51978 14.5311 2.76682 15.4902 1.73183 15.7969L2.44211 18.1939ZM6.01978 13.3994C6.01978 11.1305 4.50949 9.21757 2.44211 8.60496L1.73183 11.0019C2.76682 11.3086 3.51978 12.2677 3.51978 13.3994H6.01978ZM0.519775 5.39941V9.39747H3.01978V5.39941H0.519775ZM2.44211 8.60496C2.72724 8.68945 3.01978 8.97088 3.01978 9.39747H0.519775C0.519775 10.2045 1.08189 10.8093 1.73183 11.0019L2.44211 8.60496ZM3.01978 17.4014C3.01978 17.8279 2.72724 18.1094 2.44211 18.1939L1.73183 15.7969C1.08189 15.9895 0.519775 16.5943 0.519775 17.4014H3.01978ZM31.0974 18.1939C30.8123 18.1094 30.5198 17.8279 30.5198 17.4014H33.0198C33.0198 16.5943 32.4577 15.9895 31.8077 15.7969L31.0974 18.1939ZM30.5198 9.39747C30.5198 8.97088 30.8123 8.68945 31.0974 8.60496L31.8077 11.0019C32.4577 10.8093 33.0198 10.2045 33.0198 9.39747H30.5198Z" fill="#317CF5"/>
<path d="M16.7698 7.39941L16.7729 12.7072C16.7731 13.0467 17.1042 13.2872 17.4271 13.1825L22.4761 11.5453L17.4291 13.1885C17.1063 13.2936 16.9798 13.6828 17.1792 13.9576L20.2965 18.2535L17.1741 13.9612C16.9744 13.6868 16.5651 13.6868 16.3654 13.9612L13.2431 18.2535L16.3604 13.9576C16.5597 13.6828 16.4333 13.2936 16.1105 13.1885L11.0634 11.5453L16.1124 13.1825C16.4353 13.2872 16.7665 13.0467 16.7667 12.7072L16.7698 7.39941Z" stroke="#317CF5" stroke-width="2.5"/>
</svg>
