<svg width="20" height="23" viewBox="0 0 20 23" fill="none" xmlns="http://www.w3.org/2000/svg">
<path d="M1 12.4072C1 11.8501 1 11.4994 1 11.4994C1 11.4994 1 3.47358 2.2882 2.34914C4.853 0.151849 15.1354 0.151849 17.7118 2.34914C19 3.47358 19 11.4994 19 11.4994C19 11.4994 19 11.8501 19 12.4072C19 14.5426 18.7447 19.7624 17.7234 20.6599C15.1354 22.8469 4.853 22.8469 2.2766 20.6496C1.25532 19.7521 1.03482 14.5941 1 12.4072Z" stroke="#6E28F5" stroke-linecap="round" stroke-linejoin="round"/>
<path d="M18.9884 12.4067C18.9884 14.5421 18.7331 19.762 17.7118 20.6595C15.1354 22.8464 4.853 22.8464 2.2766 20.6491C1.25532 19.762 1.03482 14.5421 1 12.3964C4.6325 10.8284 15.3559 10.8284 18.9884 12.4067Z" stroke="#6E28F5" stroke-linecap="round" stroke-linejoin="round"/>
<path d="M14.1722 5.89828C14.1722 5.89828 14.1722 7.59009 13.5687 7.82736C11.2156 8.30192 8.77284 8.30192 6.41977 7.82736C5.81628 7.59009 5.81628 5.89828 5.81628 5.89828C5.81628 5.89828 5.81628 4.20647 6.41977 3.9692C8.77284 3.49464 11.2156 3.49464 13.5687 3.9692C14.1722 4.20647 14.1722 5.89828 14.1722 5.89828Z" stroke="#6E28F5" stroke-linecap="round" stroke-linejoin="round"/>
</svg>
