<svg width="22" height="21" viewBox="0 0 22 21" fill="none" xmlns="http://www.w3.org/2000/svg">
<path d="M1 9.35252C1 8.1201 1.56811 6.95649 2.53987 6.19851L8.53988 1.51851C9.98601 0.390519 12.014 0.390521 13.4601 1.51851L19.4601 6.19851C20.4319 6.95649 21 8.1201 21 9.35252V16.3996C21 18.6087 19.2091 20.3996 17 20.3996H15.1579C14.6056 20.3996 14.1579 19.9519 14.1579 19.3996V16.1596C14.1579 15.055 13.2625 14.1596 12.1579 14.1596H9.8421C8.73753 14.1596 7.84211 15.055 7.84211 16.1596V19.3996C7.84211 19.9519 7.39439 20.3996 6.84211 20.3996H5C2.79086 20.3996 1 18.6087 1 16.3996L1 9.35252Z" stroke="#6E28F5"/>
</svg>
