<svg width="25" height="25" viewBox="0 0 25 25" fill="none" xmlns="http://www.w3.org/2000/svg">
<path d="M19.0938 20.6768C20.6146 16.6351 21.3021 5.34342 19.3021 3.30176C17.0313 0.978841 7.96877 0.978841 5.69794 3.30176C3.69794 5.38509 4.38544 16.6351 5.90627 20.6768H19.0938Z" stroke="#6E28F5" stroke-linecap="round" stroke-linejoin="round"/>
<path d="M5.90625 23.4375H19.3021" stroke="#6E28F5" stroke-linecap="round" stroke-linejoin="round"/>
<path d="M12.5 20.6774C12.5 20.6774 10.7917 20.6774 10.5521 20.1357C10.0741 18.02 10.0741 15.8244 10.5521 13.7087C10.7917 13.167 12.5 13.167 12.5 13.167C12.5 13.167 14.2083 13.167 14.4479 13.7087C14.9259 15.8244 14.9259 18.02 14.4479 20.1357C14.2083 20.667 12.5 20.6774 12.5 20.6774Z" stroke="#6E28F5" stroke-linecap="round" stroke-linejoin="round"/>
<path d="M8.04169 6.90625V7.95833" stroke="#6E28F5" stroke-linecap="round" stroke-linejoin="round"/>
<path d="M16.9583 6.90625V7.95833" stroke="#6E28F5" stroke-linecap="round" stroke-linejoin="round"/>
<path d="M12.5 6.90625V7.95833" stroke="#6E28F5" stroke-linecap="round" stroke-linejoin="round"/>
</svg>
