<svg width="328" height="220" viewBox="0 0 328 220" fill="none" xmlns="http://www.w3.org/2000/svg">
<g clip-path="url(#clip0_56_911)">
<path d="M19.724 174.601H37.0779C38.1776 174.601 39.2362 174.182 40.0384 173.429C40.8406 172.676 41.3262 171.646 41.3964 170.547C45.5331 106.254 99.2016 55.8894 163.583 55.8894C227.964 55.8894 281.632 106.254 285.762 170.547C285.832 171.646 286.318 172.676 287.12 173.429C287.922 174.182 288.98 174.601 290.08 174.601H307.434C308.023 174.601 308.606 174.481 309.148 174.248C309.689 174.015 310.177 173.674 310.581 173.245C310.986 172.816 311.299 172.309 311.501 171.755C311.703 171.201 311.79 170.612 311.756 170.023C307.583 96.1477 249.796 37.3287 177.534 30.5595V20.4167C177.534 19.9618 177.509 19.5105 177.465 19.0665H184.357C186.882 19.0646 189.302 18.0591 191.087 16.2712C192.871 14.4832 193.874 12.059 193.874 9.53143C193.873 7.00446 192.87 4.58122 191.086 2.79405C189.301 1.00687 186.881 0.0019288 184.357 0H141.078C138.553 0.000964548 136.132 1.00547 134.347 2.79276C132.562 4.58004 131.558 7.00383 131.558 9.53143C131.558 12.0597 132.56 14.4844 134.346 16.2725C136.131 18.0605 138.553 19.0655 141.078 19.0665H149.802C149.758 19.5153 149.735 19.9658 149.733 20.4167V30.5523C77.4238 37.2778 19.5786 96.1114 15.4055 170.023C15.3719 170.611 15.4586 171.201 15.6604 171.754C15.8622 172.308 16.1749 172.815 16.5792 173.244C16.9835 173.672 17.4709 174.014 18.0117 174.247C18.5525 174.481 19.1351 174.601 19.724 174.601Z" fill="#6C34EB"/>
<path d="M313.988 193.664H13.1772C5.91066 193.664 0 199.498 0 206.66C0 213.822 5.91429 219.66 13.1772 219.66H313.988C321.251 219.66 327.162 213.826 327.162 206.664C327.162 199.502 321.251 193.664 313.988 193.664Z" fill="#6C34EB"/>
</g>
<defs>
<clipPath id="clip0_56_911">
<rect width="327.162" height="219.66" fill="white"/>
</clipPath>
</defs>
</svg>
