<svg xmlns="http://www.w3.org/2000/svg" version="1.1" xmlns:xlink="http://www.w3.org/1999/xlink" xmlns:svgjs="http://svgjs.dev/svgjs" width="1500" height="246" viewBox="0 0 1500 246"><g transform="matrix(1,0,0,1,-0.9090909090909918,-0.6110713631541671)"><svg viewBox="0 0 396 65" data-background-color="#ffffff" preserveAspectRatio="xMidYMid meet" height="246" width="1500" xmlns="http://www.w3.org/2000/svg" xmlns:xlink="http://www.w3.org/1999/xlink"><g id="tight-bounds" transform="matrix(1,0,0,1,0.2400000000000091,0.16146194554886506)"><svg viewBox="0 0 395.52 64.67707610890224" height="64.67707610890224" width="395.52"><g><svg viewBox="0 0 535.2197120279833 87.52135429262394" height="64.67707610890224" width="395.52"><g transform="matrix(1,0,0,1,139.69971202798328,0)"><svg viewBox="0 0 395.52 87.52135429262394" height="87.52135429262394" width="395.52"><g id="textblocktransform"><svg viewBox="0 0 395.52 87.52135429262394" height="87.52135429262394" width="395.52" id="textblock"><g><svg viewBox="0 0 395.52 87.52135429262394" height="87.52135429262394" width="395.52"><g transform="matrix(1,0,0,1,0,0)"><svg width="395.52" viewBox="3.4 -36 165.39 36.6" height="87.52135429262394" data-palette-color="#6e28f5"><g class="wordmark-text-0" data-fill-palette-color="primary" id="text-0"><path d="M18.45 0L3.4 0 3.4-35 17.95-35Q21.6-35 24.1-33.85 26.6-32.7 27.9-30.68 29.2-28.65 29.2-25.95L29.2-25.95Q29.2-23.35 28.05-21.55 26.9-19.75 25.03-18.78 23.15-17.8 20.9-17.65L20.9-17.65 21.7-18.2Q24.1-18.1 25.98-16.9 27.85-15.7 28.93-13.78 30-11.85 30-9.55L30-9.55Q30-6.75 28.65-4.58 27.3-2.4 24.73-1.2 22.15 0 18.45 0L18.45 0ZM10.4-15.25L10.4-5.7 17.35-5.7Q20-5.7 21.45-6.93 22.9-8.15 22.9-10.4L22.9-10.4Q22.9-12.65 21.4-13.95 19.9-15.25 17.25-15.25L17.25-15.25 10.4-15.25ZM10.4-29.4L10.4-20.45 16.8-20.45Q19.35-20.45 20.7-21.63 22.05-22.8 22.05-24.95L22.05-24.95Q22.05-27.05 20.7-28.23 19.35-29.4 16.75-29.4L16.75-29.4 10.4-29.4ZM47.5 0.6L47.5 0.6Q43.7 0.6 40.77-1.03 37.85-2.65 36.2-5.58 34.55-8.5 34.55-12.35L34.55-12.35Q34.55-16.25 36.17-19.28 37.8-22.3 40.72-24.05 43.65-25.8 47.55-25.8L47.55-25.8Q51.3-25.8 54.12-24.15 56.95-22.5 58.52-19.7 60.1-16.9 60.1-13.25L60.1-13.25Q60.1-12.75 60.07-12.15 60.05-11.55 59.95-10.85L59.95-10.85 39.55-10.85 39.55-15.1 53-15.1Q52.85-17.4 51.32-18.78 49.8-20.15 47.55-20.15L47.55-20.15Q45.85-20.15 44.45-19.35 43.05-18.55 42.25-17 41.45-15.45 41.45-13.05L41.45-13.05 41.45-11.6Q41.45-9.65 42.2-8.18 42.95-6.7 44.3-5.9 45.65-5.1 47.45-5.1L47.45-5.1Q49.25-5.1 50.42-5.85 51.6-6.6 52.2-7.8L52.2-7.8 59.35-7.8Q58.65-5.45 56.97-3.55 55.3-1.65 52.9-0.53 50.5 0.6 47.5 0.6ZM72.6 0L65.6 0 65.6-36 72.6-36 72.6 0ZM88.54 0.6L88.54 0.6Q85.49 0.6 83.32-0.68 81.14-1.95 79.99-4.45 78.84-6.95 78.84-10.6L78.84-10.6 78.84-25.2 85.84-25.2 85.84-11.3Q85.84-8.35 87.07-6.83 88.29-5.3 90.89-5.3L90.89-5.3Q92.54-5.3 93.84-6.05 95.14-6.8 95.87-8.22 96.59-9.65 96.59-11.75L96.59-11.75 96.59-25.2 103.59-25.2 103.59 0 97.44 0 96.89-4.05 96.89-4.05Q95.79-1.95 93.67-0.68 91.54 0.6 88.54 0.6ZM113.34 0.25L113.34 0.25Q111.44 0.25 110.24-0.93 109.04-2.1 109.04-3.75L109.04-3.75Q109.04-5.45 110.24-6.6 111.44-7.75 113.34-7.75L113.34-7.75Q115.24-7.75 116.44-6.6 117.64-5.45 117.64-3.75L117.64-3.75Q117.64-2.1 116.44-0.93 115.24 0.25 113.34 0.25ZM131.59 0.6L131.59 0.6Q128.49 0.6 126.41-0.43 124.34-1.45 123.36-3.18 122.39-4.9 122.39-7L122.39-7Q122.39-9.25 123.54-11 124.69-12.75 127.09-13.75 129.49-14.75 133.09-14.75L133.09-14.75 139.29-14.75Q139.29-16.55 138.81-17.73 138.34-18.9 137.31-19.5 136.29-20.1 134.59-20.1L134.59-20.1Q132.74-20.1 131.46-19.3 130.19-18.5 129.89-16.9L129.89-16.9 123.09-16.9Q123.39-19.6 124.89-21.58 126.39-23.55 128.91-24.68 131.44-25.8 134.64-25.8L134.64-25.8Q138.19-25.8 140.81-24.6 143.44-23.4 144.86-21.15 146.29-18.9 146.29-15.6L146.29-15.6 146.29 0 140.39 0 139.59-3.8 139.59-3.8Q139.09-2.8 138.31-2 137.54-1.2 136.54-0.63 135.54-0.05 134.31 0.28 133.09 0.6 131.59 0.6ZM133.29-4.8L133.29-4.8Q134.54-4.8 135.54-5.23 136.54-5.65 137.24-6.45 137.94-7.25 138.39-8.28 138.84-9.3 138.99-10.5L138.99-10.5 138.99-10.55 133.94-10.55Q132.49-10.55 131.56-10.18 130.64-9.8 130.19-9.13 129.74-8.45 129.74-7.6L129.74-7.6Q129.74-6.7 130.19-6.05 130.64-5.4 131.44-5.1 132.24-4.8 133.29-4.8ZM159.59 0L152.59 0 152.59-25.2 158.79-25.2 159.44-20.55 159.44-20.55Q160.39-22.2 161.74-23.35 163.09-24.5 164.89-25.15 166.69-25.8 168.79-25.8L168.79-25.8 168.79-18.4 166.44-18.4Q164.94-18.4 163.66-18.05 162.39-17.7 161.46-16.93 160.54-16.15 160.06-14.83 159.59-13.5 159.59-11.5L159.59-11.5 159.59 0Z" fill="#6e28f5" data-fill-palette-color="primary"></path></g></svg></g></svg></g></svg></g></svg></g><g transform="matrix(1,0,0,1,0,3.845688307617891)"><svg viewBox="0 0 119.0380207919978 79.82997767738816" height="79.82997767738816" width="119.0380207919978"><g><svg xmlns="http://www.w3.org/2000/svg" xmlns:xlink="http://www.w3.org/1999/xlink" version="1.1" x="0" y="0" viewBox="5.013 19.643 90.00099999999999 60.357" enable-background="new 0 0 100 100" xml:space="preserve" height="79.82997767738816" width="119.0380207919978" class="icon-icon-0" data-fill-palette-color="accent" id="icon-0"><path d="M10.439 67.619H15.213A1.19 1.19 0 0 0 16.401 66.505C17.539 48.839 32.303 35 50.014 35S82.489 48.839 83.625 66.505A1.19 1.19 0 0 0 84.813 67.619H89.587A1.19 1.19 0 0 0 90.776 66.361C89.628 46.062 73.731 29.9 53.852 28.04V25.253C53.852 25.128 53.845 25.004 53.833 24.882H55.729A2.62 2.62 0 0 0 58.347 22.262 2.62 2.62 0 0 0 55.729 19.643H43.823A2.62 2.62 0 0 0 41.204 22.262 2.62 2.62 0 0 0 43.823 24.882H46.223A4 4 0 0 0 46.204 25.253V28.038C26.312 29.886 10.399 46.052 9.251 66.361A1.19 1.19 0 0 0 10.439 67.619" fill="#6c34eb" data-fill-palette-color="accent"></path><path d="M91.39 72.857H8.638C6.639 72.857 5.013 74.46 5.013 76.428S6.64 80 8.638 80H91.39C93.388 80 95.014 78.397 95.014 76.429S93.388 72.857 91.39 72.857" fill="#6c34eb" data-fill-palette-color="accent"></path></svg></g></svg></g></svg></g><defs></defs></svg><rect width="395.52" height="64.67707610890224" fill="none" stroke="none" visibility="hidden"></rect></g></svg></g></svg>