<svg width="22" height="22" viewBox="0 0 22 22" fill="none" xmlns="http://www.w3.org/2000/svg">
<path d="M11.0143 17.808C18.1195 17.808 20.5515 16.6731 20.5515 16.6731C20.6847 16.6315 20.8006 16.5474 20.8815 16.4338C20.9625 16.3201 21.004 16.1831 20.9997 16.0436C20.7327 9.08148 18.005 5.55273 10.9857 5.55273C3.96635 5.55273 1.26734 9.11009 1.0003 16.0436C0.996039 16.1831 1.03755 16.3201 1.11849 16.4338C1.19943 16.5474 1.31535 16.6315 1.44854 16.6731C1.44854 16.6731 3.90913 17.808 11.0143 17.808Z" stroke="#6E28F5" stroke-linecap="round" stroke-linejoin="round"/>
<path d="M1.53436 19.6025C2.90771 19.9363 3.90911 20.7184 11.0143 20.7184C18.1195 20.7184 19.1209 19.9268 20.4942 19.6025" stroke="#6E28F5" stroke-linecap="round" stroke-linejoin="round"/>
<path d="M8.04828 2.93118C8.04828 1.97746 8.68727 1.28125 11.0143 1.28125C13.3414 1.28125 13.9804 2.02515 13.9804 2.93118" stroke="#6E28F5" stroke-linecap="round" stroke-linejoin="round"/>
<path d="M11.0143 1.28125V5.58251" stroke="#6E28F5" stroke-linecap="round" stroke-linejoin="round"/>
</svg>
