<svg width="20" height="20" viewBox="0 0 20 20" fill="none" xmlns="http://www.w3.org/2000/svg">
<path d="M11.0417 15.1504H16.175H17.5C17.8472 15.1889 18.1665 15.3589 18.3923 15.6255C18.618 15.8921 18.7331 16.235 18.7139 16.5838C18.6947 16.9327 18.5427 17.2609 18.289 17.5011C18.0354 17.7413 17.6994 17.8752 17.35 17.8754H11.0417" stroke="#6E28F5" stroke-linecap="round" stroke-linejoin="round"/>
<path d="M8.95831 7.27539H3.82497H2.49997C2.15499 7.31285 1.83717 7.48013 1.611 7.74331C1.38483 8.00648 1.26723 8.34584 1.28207 8.69253C1.29692 9.03922 1.44309 9.36729 1.69093 9.61017C1.93877 9.85305 2.26972 9.99256 2.61664 10.0004H8.95831" stroke="#6E28F5" stroke-linecap="round" stroke-linejoin="round"/>
<path d="M11.0417 15.1669C10.6792 15.1669 10.3316 15.0229 10.0753 14.7666C9.81898 14.5103 9.67499 14.1627 9.67499 13.8003C9.67499 13.4378 9.81898 13.0902 10.0753 12.8339C10.3316 12.5776 10.6792 12.4336 11.0417 12.4336H15.4833" stroke="#6E28F5" stroke-linecap="round" stroke-linejoin="round"/>
<path d="M8.95833 7.29193C9.1378 7.29193 9.31552 7.25658 9.48133 7.1879C9.64714 7.11921 9.7978 7.01855 9.92471 6.89164C10.0516 6.76473 10.1523 6.61407 10.221 6.44826C10.2896 6.28245 10.325 6.10473 10.325 5.92526C10.325 5.74579 10.2896 5.56807 10.221 5.40226C10.1523 5.23645 10.0516 5.08579 9.92471 4.95888C9.7978 4.83197 9.64714 4.73131 9.48133 4.66263C9.31552 4.59394 9.1378 4.55859 8.95833 4.55859H4.51666" stroke="#6E28F5" stroke-linecap="round" stroke-linejoin="round"/>
<path d="M11.0417 17.8829H10.45C9.43488 17.8362 8.47679 17.4001 7.77492 16.6652C7.07304 15.9304 6.6814 14.9532 6.6814 13.937C6.6814 12.9208 7.07304 11.9437 7.77492 11.2089C8.47679 10.474 9.43488 10.0379 10.45 9.99121H16.175C16.7224 9.99322 17.2551 10.1691 17.6961 10.4934C18.1371 10.8178 18.4637 11.2738 18.6287 11.7958C18.7937 12.3177 18.7887 12.8786 18.6143 13.3975C18.4399 13.9164 18.1051 14.3665 17.6583 14.6829C17.2229 14.9856 16.7054 15.1484 16.175 15.1495" stroke="#6E28F5" stroke-linecap="round" stroke-linejoin="round"/>
<path d="M8.95833 10.0001H9.55C10.5651 9.9534 11.5232 9.5173 12.2251 8.78242C12.927 8.04755 13.3186 7.07044 13.3186 6.05423C13.3186 5.03803 12.927 4.06092 12.2251 3.32604C11.5232 2.59117 10.5651 2.15506 9.55 2.1084H3.825C3.27532 2.1079 2.73981 2.28275 2.29634 2.60751C1.85286 2.93228 1.52453 3.39004 1.3591 3.91423C1.19366 4.43842 1.19974 5.00171 1.37645 5.52221C1.55316 6.04271 1.89128 6.49328 2.34166 6.8084C2.77716 7.11115 3.29461 7.27394 3.825 7.27507" stroke="#6E28F5" stroke-linecap="round" stroke-linejoin="round"/>
<path d="M10.45 17.8829H5.19165C4.17652 17.8362 3.21843 17.4001 2.51655 16.6652C1.81468 15.9304 1.42303 14.9532 1.42303 13.937C1.42303 12.9208 1.81468 11.9437 2.51655 11.2089C3.21843 10.474 4.17652 10.0379 5.19165 9.99121H10.45" stroke="#6E28F5" stroke-linecap="round" stroke-linejoin="round"/>
<path d="M9.54999 10.0001H14.8083C15.8235 9.9534 16.7815 9.5173 17.4834 8.78242C18.1853 8.04755 18.5769 7.07043 18.5769 6.05423C18.5769 5.03803 18.1853 4.06092 17.4834 3.32604C16.7815 2.59116 15.8235 2.15506 14.8083 2.1084H9.54999" stroke="#6E28F5" stroke-linecap="round" stroke-linejoin="round"/>
</svg>
