<svg width="34" height="34" viewBox="0 0 34 34" fill="none" xmlns="http://www.w3.org/2000/svg">
<path d="M4 30H6.88889M30 30H27.1111M6.88889 30H27.1111M6.88889 30V13.141M27.1111 30V13.141M6.88889 13.141C6.83544 13.1101 6.78273 13.0774 6.73087 13.0428L5.95035 12.5225C4.81367 11.7647 4.36319 10.3143 4.87055 9.04585L6.1625 5.81598C6.60121 4.71919 7.66348 4 8.84476 4H25.1552C26.3365 4 27.3988 4.71919 27.8375 5.81598L29.1295 9.04585C29.6368 10.3143 29.1863 11.7647 28.0497 12.5225L27.2691 13.0428C27.2173 13.0774 27.1646 13.1101 27.1111 13.141M6.88889 13.141C7.83554 13.6879 9.01729 13.6551 9.9358 13.0428L12.6667 11.2222L15.3975 13.0428C16.3679 13.6897 17.6321 13.6897 18.6025 13.0428L21.3333 11.2222L24.0642 13.0428C24.9827 13.6551 26.1645 13.6879 27.1111 13.141" stroke="#6E28F5" stroke-width="2" stroke-linecap="round" stroke-linejoin="round"/>
<path d="M20 30V22C20 20.8954 19.1046 20 18 20H16C14.8954 20 14 20.8954 14 22V30" stroke="#6E28F5" stroke-width="2"/>
</svg>
